<svg xmlns="http://www.w3.org/2000/svg" width="1536" height="1024" viewBox="0 0 1536 1024" version="1.1">
	<path d="M -0 512.001 L -0 1024.001 768.250 1023.751 L 1536.500 1023.500 1536.751 511.750 L 1537.002 0 768.501 0 L 0 0 -0 512.001 M 0.496 512.500 C 0.496 794.100, 0.610 909.151, 0.750 768.168 C 0.890 627.186, 0.890 396.786, 0.750 256.168 C 0.610 115.551, 0.496 230.900, 0.496 512.500 M 245.314 368.907 C 241.115 371.524, 240 373.831, 240 379.899 C 240 384.082, 240.514 385.516, 243.050 388.404 C 244.727 390.315, 247.540 392.327, 249.300 392.876 C 251.060 393.424, 261.050 394.160, 271.500 394.510 C 281.950 394.861, 291.260 395.361, 292.189 395.622 C 294.318 396.220, 293.631 392.575, 306.959 474 C 325.860 589.468, 325.406 586.937, 328.401 593.605 C 333.168 604.218, 345.876 614.369, 356.116 615.742 C 358.252 616.029, 360 616.472, 360 616.727 C 360 616.982, 359.169 618.386, 358.153 619.846 C 350.348 631.062, 354.346 647.116, 366.396 652.949 C 377.963 658.549, 392.883 653.346, 397.795 642 C 399.849 637.257, 399.784 627.338, 397.673 623.300 C 396.753 621.539, 396 619.852, 396 619.550 C 396 619.247, 411.525 619, 430.500 619 C 449.475 619, 465 619.130, 465 619.289 C 465 619.447, 464.100 621.342, 463 623.500 C 460.650 628.109, 460.343 636.496, 462.348 641.282 C 466.103 650.241, 473.989 655.406, 484 655.463 C 489.344 655.493, 491.339 655.007, 495.216 652.728 C 503.579 647.812, 507.733 639.834, 506.657 630.753 C 506.333 628.018, 505.168 624.255, 504.068 622.390 L 502.067 619 508.629 619 C 516.005 619, 519.776 617.342, 522.364 612.960 C 524.407 609.503, 524.474 602.818, 522.506 599.011 C 519.217 592.652, 523.870 593, 442.144 593 C 386.163 593, 366.713 592.695, 363.616 591.770 C 358.487 590.238, 351.854 583.744, 350.338 578.772 L 349.201 575.044 432.350 574.772 L 515.500 574.500 521.142 571.730 C 527.614 568.551, 534.346 561.743, 537.016 555.676 C 538.026 553.379, 539.354 547.675, 539.967 543 C 540.580 538.325, 543.357 517.850, 546.139 497.500 C 552.013 454.528, 552.123 449.113, 547.328 438.923 C 541.779 427.132, 532.053 419.897, 519.310 418.080 C 516.114 417.624, 499.258 417.311, 481.851 417.383 L 450.202 417.514 449.811 411.377 C 449.504 406.545, 448.816 404.447, 446.576 401.511 C 439.099 391.708, 424.864 391.756, 417.348 401.611 C 415.188 404.442, 414.494 406.591, 414.189 411.380 L 413.798 417.521 369.469 417.497 C 345.088 417.484, 324.896 417.230, 324.599 416.932 C 324.301 416.634, 322.692 408.401, 321.023 398.635 C 317.769 379.592, 316.749 376.650, 312.031 372.680 C 308.248 369.496, 306.002 369.217, 278.500 368.504 C 266.400 368.190, 254.700 367.706, 252.500 367.427 C 249.584 367.058, 247.636 367.459, 245.314 368.907 M 415.021 436.068 C 380.814 445.023, 357 474.939, 357 508.958 L 357 516 365.439 516 L 373.877 516 374.455 511.250 C 377.383 487.174, 385.582 471.937, 401.187 461.576 C 411.590 454.669, 429.624 450.188, 442.458 451.322 C 449.442 451.939, 451 453.436, 451 459.534 C 451 462.957, 449.741 465.689, 443.829 475.093 C 432.161 493.654, 430.681 500.063, 435.750 510.071 L 438.500 515.500 475.750 515.762 L 513 516.024 513 507.960 C 513 474.564, 487.873 443.313, 454.742 435.501 C 445.404 433.300, 424.454 433.599, 415.021 436.068 M 922 451.814 C 901.300 457.225, 889.030 475.157, 889.030 500 C 889.030 515.552, 893.182 527.082, 902.225 536.645 C 912.150 547.139, 921.348 550.468, 938.593 549.808 C 949.141 549.404, 950.327 549.143, 957.348 545.673 C 990.750 529.164, 991.336 472.960, 958.285 455.752 C 946.880 449.814, 934.708 448.493, 922 451.814 M 596.681 451.652 C 596.307 452.027, 596 473.806, 596 500.050 C 596 544.671, 596.114 547.793, 597.750 548.177 C 598.712 548.403, 603.325 548.568, 608 548.544 L 616.500 548.500 616.771 528.772 L 617.042 509.045 635.271 508.772 L 653.500 508.500 653.500 500 L 653.500 491.500 635.249 491.500 L 616.999 491.500 616.999 480.271 L 617 469.042 636.750 468.771 L 656.500 468.500 656.500 460 L 656.500 451.500 626.931 451.235 C 610.668 451.090, 597.056 451.277, 596.681 451.652 M 861.703 451.631 C 861.316 452.017, 861 459.997, 861 469.363 L 861 486.392 857.750 483.247 C 853.032 478.680, 848.185 477, 839.728 477 C 833.845 477, 831.366 477.511, 827.207 479.584 C 813.914 486.209, 807.093 502.414, 809.992 520.483 C 812.869 538.409, 822.706 548.674, 838.061 549.772 C 847.271 550.431, 851.165 549.521, 856.477 545.466 L 861 542.013 861 544.900 C 861 548.450, 861.538 548.636, 871.500 548.539 L 879.500 548.462 879.500 499.981 L 879.500 451.500 870.953 451.214 C 866.252 451.057, 862.089 451.244, 861.703 451.631 M 1088 468.650 L 1088 486.374 1085.250 483.797 C 1078.149 477.142, 1066.179 475.016, 1055.775 478.561 C 1034.666 485.754, 1029.020 524.009, 1046.475 541.574 C 1052.550 547.687, 1058.517 550, 1068.210 550 C 1076.172 550, 1081.124 548.231, 1085.783 543.721 L 1089.067 540.543 1088.837 543.550 C 1088.711 545.204, 1088.888 547.009, 1089.229 547.562 C 1089.712 548.344, 1102.147 548.749, 1106.260 548.117 C 1106.677 548.053, 1106.902 526.288, 1106.760 499.750 L 1106.500 451.500 1097.250 451.212 L 1088 450.925 1088 468.650 M 1241.458 452.250 C 1241.195 452.938, 1241.096 474.863, 1241.240 500.974 L 1241.500 548.448 1249.500 548.545 C 1253.900 548.599, 1258.175 548.318, 1259 547.920 C 1260.304 547.292, 1260.484 541.121, 1260.374 500.644 C 1260.305 475.040, 1259.982 453.395, 1259.656 452.545 C 1258.881 450.527, 1242.222 450.257, 1241.458 452.250 M 925.459 470.303 C 919.545 473.132, 915.671 477.393, 912.095 485 C 909.867 489.740, 909.516 491.813, 909.554 500 C 909.591 508.201, 909.978 510.338, 912.379 515.626 C 915.566 522.642, 920.771 528.182, 926.367 530.514 C 931.188 532.522, 941.613 532.606, 946.238 530.674 C 954.468 527.235, 960.566 517.663, 962.331 505.411 C 965.289 484.878, 954.724 469.398, 937 468.296 C 931.648 467.964, 929.609 468.318, 925.459 470.303 M 681.500 478.166 C 676.126 480.173, 668.127 486.063, 664.986 490.328 C 654.794 504.165, 656.154 527.857, 667.826 539.809 C 670.397 542.441, 674.750 545.698, 677.500 547.047 C 681.843 549.178, 683.880 549.500, 693 549.500 C 702.416 549.500, 704.075 549.218, 709.068 546.766 C 722.806 540.019, 730.252 525.610, 728.568 509.033 C 727.296 496.510, 720.850 486.878, 709.768 480.939 C 704.090 477.896, 702.605 477.554, 694 477.313 C 688.726 477.165, 683.165 477.545, 681.500 478.166 M 756.890 478.424 C 747.914 481.841, 740.311 488.782, 736.766 496.796 C 732.450 506.554, 732.618 520.593, 737.179 531.194 C 739.920 537.567, 748.330 545.232, 755.541 547.929 C 763.080 550.750, 774.900 550.758, 782.414 547.946 C 789.203 545.406, 797.334 538.248, 800.477 532.045 C 807.881 517.435, 805.339 498.179, 794.596 487.492 C 786.935 479.871, 781.514 477.627, 770 477.311 C 763.770 477.140, 759.257 477.523, 756.890 478.424 M 1023.625 478.469 C 1018.995 480.119, 1013.637 485.071, 1011.817 489.381 C 1010.512 492.472, 1010.495 492.441, 1010 486 L 1009.500 479.500 1001.237 479.209 L 992.974 478.919 993.237 513.709 L 993.500 548.500 1002.500 548.500 L 1011.500 548.500 1012 528.500 C 1012.442 510.812, 1012.731 508.116, 1014.500 505.181 C 1017.188 500.720, 1022.025 497.901, 1028.306 497.134 L 1033.500 496.500 1033.786 486.750 L 1034.072 477 1030.786 477.044 C 1028.979 477.068, 1025.756 477.709, 1023.625 478.469 M 1137.844 478.394 C 1127.403 482.123, 1121.582 487.494, 1116.595 498 C 1113.834 503.818, 1113.517 505.444, 1113.573 513.500 C 1113.657 525.663, 1116.305 532.465, 1123.920 540.080 C 1131.296 547.456, 1137.862 550, 1149.527 550 C 1158.997 550, 1165.383 548.098, 1171.453 543.468 C 1175.676 540.247, 1180.574 533.547, 1181.551 529.654 L 1182.217 527 1173.401 527 C 1164.639 527, 1164.562 527.022, 1160.922 530.576 C 1156.640 534.757, 1151.682 536.165, 1145.852 534.855 C 1140.098 533.563, 1136.511 530.734, 1134.614 525.993 C 1131.636 518.551, 1130.068 519, 1159 519 L 1185 519 1184.988 514.250 C 1184.951 499.381, 1176.795 485.687, 1164.500 479.850 C 1159.329 477.395, 1157.326 477.008, 1150 477.045 C 1145.325 477.068, 1139.855 477.675, 1137.844 478.394 M 1221.500 479.368 C 1215.824 482.034, 1213.735 484.069, 1211.583 489.030 L 1210.078 492.500 1210.028 489.500 C 1210.001 487.850, 1209.699 484.813, 1209.358 482.750 L 1208.738 479 1200.369 479 L 1192 479 1192 513.393 C 1192 540.026, 1192.282 547.877, 1193.250 548.188 C 1193.938 548.409, 1198.100 548.570, 1202.500 548.545 L 1210.500 548.500 1211 528.500 C 1211.526 507.466, 1211.735 506.483, 1216.664 501.814 C 1220.195 498.469, 1223.980 497, 1229.065 497 L 1233 497 1233 487 L 1233 477 1229.750 477.010 C 1227.963 477.015, 1224.250 478.076, 1221.500 479.368 M 1267 479.390 C 1267 479.643, 1272.625 494.785, 1279.500 513.040 C 1286.375 531.294, 1291.990 547.191, 1291.978 548.365 C 1291.930 552.984, 1286.818 556.763, 1279.128 557.863 L 1274.500 558.525 1274.500 566.512 L 1274.500 574.500 1278.751 574.808 C 1288.730 575.529, 1300.970 569.979, 1306.272 562.329 C 1307.737 560.215, 1315.033 542.063, 1322.485 521.992 C 1329.936 501.922, 1336.476 484.466, 1337.016 483.203 C 1337.557 481.940, 1338 480.477, 1338 479.953 C 1338 478.468, 1319.447 478.747, 1318.248 480.250 C 1317.699 480.938, 1313.979 491.072, 1309.981 502.772 C 1305.982 514.472, 1302.536 523.869, 1302.322 523.656 C 1302.109 523.442, 1298.648 513.419, 1294.633 501.384 L 1287.332 479.500 1277.166 479.215 C 1271.575 479.058, 1267 479.137, 1267 479.390 M 1142.500 493.356 C 1137.717 495.571, 1133 501.880, 1133 506.065 C 1133 506.606, 1139.784 507, 1149.108 507 L 1165.217 507 1164.563 504.250 C 1163.753 500.841, 1161.190 497.231, 1157.763 494.672 C 1154.449 492.198, 1146.485 491.511, 1142.500 493.356 M 686.984 494.852 C 672.245 502.684, 674.910 530.025, 690.747 533.454 C 700.291 535.521, 709 526.088, 709 513.681 C 709 498.348, 698.042 488.976, 686.984 494.852 M 763.450 494.407 C 757.167 497.144, 753.011 504.744, 753.011 513.500 C 753.011 529.862, 767.268 539.377, 778.113 530.252 C 788.889 521.184, 786.602 499.492, 774.329 494.364 C 770.291 492.677, 767.395 492.688, 763.450 494.407 M 838.058 495.186 C 831.685 498.506, 829.489 503.225, 829.537 513.500 C 829.594 525.823, 833.972 532.058, 843.591 533.519 C 848.617 534.283, 855.566 530.881, 858.742 526.102 C 860.676 523.191, 861 521.385, 861 513.500 C 861 505.601, 860.681 503.827, 858.750 500.990 C 853.597 493.419, 845.701 491.204, 838.058 495.186 M 1066.333 494.046 C 1059.519 496.129, 1055.490 504.646, 1056.181 515.504 C 1056.721 523.975, 1059.482 528.937, 1065.274 531.843 C 1070.598 534.513, 1075.439 534.235, 1080.843 530.949 C 1086.752 527.356, 1088.130 523.762, 1087.796 512.820 C 1087.481 502.506, 1086.421 499.879, 1080.938 495.818 C 1077.971 493.620, 1070.638 492.730, 1066.333 494.046 M 343.096 535.250 C 343.149 536.487, 343.711 539.736, 344.346 542.468 C 345.333 546.715, 346.082 547.766, 349.500 549.702 L 353.500 551.967 433.102 551.984 L 512.704 552 516.102 549.737 C 517.971 548.492, 520.323 545.795, 521.330 543.743 C 522.870 540.601, 522.976 539.458, 522.002 536.506 L 520.845 533 431.922 533 L 343 533 343.096 535.250" stroke="none" fill="#956704" fill-rule="evenodd"/>
</svg>