<svg xmlns="http://www.w3.org/2000/svg" width="1536" height="1024" viewBox="0 0 1536 1024" version="1.1">
	<path d="M 427.766 252.686 C 421.596 254.765, 415.725 259.871, 412.978 265.546 C 409.715 272.286, 410.417 282.287, 414.567 288.192 C 418.024 293.110, 422.690 296.542, 427.882 297.984 C 430.064 298.590, 449.826 298.991, 477.671 298.994 L 523.841 299 524.428 301.750 C 524.750 303.262, 533.094 360.975, 542.970 430 C 580.680 693.574, 577.070 671.210, 584.213 685.467 C 594.637 706.271, 615.860 724.508, 633.648 727.947 C 636.867 728.570, 640.437 729.276, 641.581 729.516 L 643.663 729.954 641.207 737.227 C 629.718 771.247, 650.880 803.173, 685 803.296 C 700.424 803.352, 711.559 799.154, 721.227 789.639 C 733.974 777.094, 738.237 756.965, 732.057 738.500 C 730.953 735.200, 730.038 732.163, 730.025 731.750 C 730.011 731.337, 759.025 731, 794.500 731 C 829.975 731, 859 731.128, 859 731.285 C 859 731.441, 858.083 734.178, 856.962 737.367 C 855.842 740.555, 854.652 746.697, 854.319 751.016 C 852.685 772.211, 862.570 790.119, 880.678 798.765 L 888.500 802.500 902.500 802.500 L 916.500 802.500 924.280 798.785 C 938.680 791.909, 947.304 780.367, 950.493 763.702 C 952.079 755.413, 951.338 744.765, 948.527 735.424 C 947.738 732.803, 947.285 730.349, 947.519 729.970 C 947.753 729.591, 951.915 729.054, 956.768 728.777 C 970.835 727.975, 978.181 723.919, 982.623 714.500 C 988.841 701.314, 981.725 685.794, 967.798 682.168 C 964.755 681.375, 919.701 680.931, 813.500 680.645 C 649.031 680.202, 656.404 680.478, 644.168 674.288 C 634.245 669.267, 624.932 658.912, 623.386 651.179 L 622.750 648 796.917 648 C 988.984 648, 979.462 648.302, 992.434 641.805 C 1000.241 637.895, 1005.904 633.261, 1010.461 627.053 C 1017.951 616.850, 1018.932 612.641, 1027.954 552 C 1030.204 536.875, 1035.635 500.492, 1040.023 471.148 C 1048.408 415.069, 1049.096 406.934, 1046.509 394.500 C 1041.831 372.022, 1023.121 352.428, 1002.201 348.097 C 998.620 347.356, 971.544 346.999, 918.701 346.997 L 840.500 346.994 840.483 336.247 C 840.469 327.218, 840.126 324.861, 838.335 321.500 C 832.614 310.763, 822.838 305.497, 810 306.236 C 801.288 306.738, 796.298 308.936, 790.860 314.665 C 786.006 319.780, 784.247 323.524, 782.837 331.742 C 781.983 336.726, 781.951 339.767, 782.723 342.807 L 783.787 347 682.093 347 L 580.398 347 576.092 317.750 C 571.355 285.570, 569.098 276.979, 563.031 268.046 C 558.246 261, 554.209 257.485, 547 254.090 L 541.500 251.500 487 251.295 C 439.380 251.116, 431.902 251.291, 427.766 252.686 M 792.500 378.689 C 732.871 386.426, 683.514 426.616, 661.599 485.278 C 655.388 501.905, 649.022 529.438, 649.005 539.750 L 649 543 666.372 543 L 683.744 543 684.411 538.750 C 685.454 532.098, 689.641 516.068, 692.600 507.392 C 705.584 469.336, 729.602 438.459, 758.234 423.015 C 774.701 414.133, 789.261 410.497, 805.713 411.158 C 814.861 411.525, 816.476 411.895, 822.625 415.032 C 831.667 419.645, 835.272 425.118, 835.835 435.087 C 836.317 443.619, 834.260 448.305, 826.056 457.357 C 818.845 465.315, 815.261 470.515, 810.600 479.789 C 802.712 495.480, 798.299 513.619, 797.777 532.500 L 797.500 542.500 886.250 542.755 C 956.930 542.959, 974.996 542.755, 974.982 541.755 C 974.833 531.597, 968.277 502.390, 962.665 486.887 C 941.548 428.549, 891.367 386.587, 833.678 379.025 C 826.313 378.060, 799.063 377.837, 792.500 378.689 M 631.604 575.038 C 625.468 576.875, 620 584.467, 620 591.152 C 620 596.460, 623.681 602.729, 628.434 605.514 L 632.676 608 806.626 608 L 980.576 608 985.034 605.750 C 990.803 602.838, 993.961 597.421, 993.984 590.398 C 994.004 583.905, 991.100 579.317, 985.030 576.250 L 980.576 574 807.538 574.086 C 712.367 574.133, 633.197 574.562, 631.604 575.038" stroke="none" fill="#ffa50a" fill-rule="evenodd"/>
</svg>