<svg xmlns="http://www.w3.org/2000/svg" width="1157" height="253" viewBox="0 0 1157 253" version="1.1">
	<path d="M 149.637 29.465 C 139.250 33.168, 134.133 45.202, 138.500 55.654 C 140.379 60.151, 140.398 60, 137.958 60 C 136.835 60, 132.447 60.709, 128.208 61.576 C 96.185 68.122, 69.204 87.375, 52.045 115.925 C 43.056 130.881, 37 152.290, 37 169.110 L 37 178 155 178 L 273 178 272.996 170.750 C 272.979 137.825, 255.813 103.336, 229.637 83.635 C 214.295 72.089, 197.494 64.269, 181.735 61.341 C 176.656 60.397, 172.408 59.579, 172.295 59.524 C 172.182 59.469, 172.725 57.641, 173.501 55.462 C 177.461 44.343, 172.909 33.914, 162.128 29.409 C 157.960 27.667, 154.638 27.682, 149.637 29.465 M 688.500 87.841 C 678.795 90.682, 672.972 94.083, 665.788 101.104 C 652.255 114.333, 646.815 135.144, 651.553 155.571 C 655.973 174.632, 670.565 189.526, 689.703 194.511 C 698.937 196.916, 712.745 196.471, 721.652 193.481 C 744.555 185.792, 757.989 167.238, 758.515 142.564 C 759.039 117.948, 744.861 96.837, 722.500 88.938 C 714.072 85.961, 696.823 85.405, 688.500 87.841 M 617.998 107.437 L 618 127.374 615.250 124.741 C 607.177 117.010, 591.523 115.081, 580.696 120.482 C 567.252 127.189, 560.022 141.983, 561.398 159.970 C 562.913 179.775, 575.250 193.803, 592.765 195.633 C 600.811 196.474, 607.467 194.184, 613.970 188.337 L 619 183.815 619 189.407 L 619 195 629 195 L 639 195 639 141.564 L 639 88.129 628.498 87.814 L 617.996 87.500 617.998 107.437 M 1056.241 87.785 L 1045.983 88.070 1046.241 141.285 L 1046.500 194.500 1057 194.500 L 1067.500 194.500 1067.802 141.602 C 1067.968 112.508, 1067.743 88.433, 1067.302 88.102 C 1066.861 87.771, 1061.884 87.628, 1056.241 87.785 M 319 141.500 L 319 195 330 195 L 341 195 341 173.500 L 341 152 360.500 152 L 380 152 380 142.500 L 380 133 360.500 133 L 341 133 341 119.750 L 340.999 106.500 361.500 106.721 L 382 106.943 382 97.471 L 382 88 350.500 88 L 319 88 319 141.500 M 876 108.119 L 876 128.237 872.851 125.159 C 867.226 119.659, 861.563 117.603, 852 117.589 C 842.118 117.575, 837.340 119.493, 830.166 126.355 C 821.466 134.676, 818.078 144.888, 819.151 159.559 C 819.731 167.489, 820.427 170.425, 822.940 175.530 C 828.718 187.267, 838.932 194.639, 850.920 195.726 C 858.834 196.444, 865.591 194.072, 871.970 188.337 L 877 183.815 877 189.407 L 877 195 887 195 L 897 195 897 141.500 L 897 88 886.500 88 L 876 88 876 108.119 M 692.711 107.655 C 685.820 110.046, 679.859 115.728, 676.413 123.192 C 673.708 129.049, 673.500 130.357, 673.500 141.500 C 673.500 152.329, 673.753 154.037, 676.090 159 C 679.615 166.484, 683.307 170.595, 689.380 173.798 C 693.954 176.210, 695.567 176.499, 704.500 176.499 C 713.694 176.500, 714.927 176.263, 719.802 173.563 C 730.503 167.635, 735.436 157.301, 735.346 141 C 735.256 124.548, 730.417 114.779, 719.657 109.326 C 712.957 105.931, 699.997 105.127, 692.711 107.655 M 417 117.603 C 401.562 121.734, 390.254 134.538, 387.947 150.500 C 386.141 163, 389.991 175.529, 398.205 183.881 C 407.604 193.440, 415.529 196.412, 430.059 195.829 C 438.401 195.494, 440.512 195.022, 446.184 192.230 C 454.053 188.356, 461.089 181.178, 464.820 173.218 C 467.231 168.074, 467.495 166.395, 467.454 156.500 C 467.413 146.763, 467.103 144.838, 464.751 139.732 C 461.702 133.112, 453.339 124.234, 447.205 121.105 C 437.548 116.178, 426.928 114.947, 417 117.603 M 506 117.098 C 494.070 119.428, 482.415 128.603, 477.185 139.782 C 474.793 144.893, 474.509 146.670, 474.505 156.518 C 474.500 166.910, 474.682 167.903, 477.709 174.018 C 481.734 182.146, 487.654 188.261, 495.448 192.336 C 501.302 195.397, 501.909 195.500, 514 195.500 C 525.446 195.500, 526.979 195.276, 532.175 192.840 C 556.013 181.665, 562.467 151.271, 545.419 130.466 C 540.668 124.668, 531.969 119.440, 523.912 117.541 C 516.848 115.876, 512.774 115.775, 506 117.098 M 937.407 117.031 C 927.833 118.929, 917.420 126.188, 912.703 134.253 C 906.551 144.770, 905.243 159.069, 909.389 170.491 C 913.624 182.158, 918.633 187.634, 929.765 192.770 C 937.933 196.538, 951.794 197.116, 960.829 194.064 C 966.962 191.992, 974.847 187.702, 976.127 185.740 C 976.966 184.455, 976.012 181, 974.818 181 C 974.284 181, 974.089 178.999, 974.371 176.430 C 974.825 172.307, 974.715 171.989, 973.250 173.180 C 971.842 174.324, 971.718 174.255, 972.316 172.660 C 973.602 169.231, 971.856 168.920, 968.392 171.960 C 959.606 179.675, 947.163 182.194, 938.515 178.007 C 933.474 175.567, 929.448 170.489, 928.400 165.250 L 927.757 162.033 954.624 161.767 L 981.491 161.500 981.828 156.201 C 982.202 150.320, 979.193 138.827, 975.752 133 C 968.122 120.076, 953.261 113.887, 937.407 117.031 M 803.539 118.466 C 798.745 119.753, 793.526 124.146, 790.364 129.557 C 789.467 131.092, 789.338 130.083, 789.751 124.750 L 790.274 118 779.637 118 L 769 118 769 156.500 L 769 195 780 195 L 791 195 791 171.468 C 791 146.440, 791.453 143.527, 795.966 139.500 C 797.769 137.891, 799.945 137.432, 807.104 137.151 L 816 136.801 816 127.876 C 816 119.215, 815.924 118.922, 813.435 117.975 C 810.283 116.777, 809.731 116.804, 803.539 118.466 M 1028 117.646 C 1026.625 117.874, 1024.461 118.287, 1023.191 118.564 C 1020.430 119.166, 1012 126.703, 1012 128.568 C 1012 129.291, 1011.612 130.122, 1011.139 130.414 C 1010.665 130.707, 1010.488 128.017, 1010.746 124.437 L 1011.216 117.928 1000.858 118.214 L 990.500 118.500 990.500 156.500 L 990.500 194.500 1001.174 194.783 L 1011.848 195.066 1012.174 169.783 C 1012.460 147.617, 1012.718 144.180, 1014.264 141.904 C 1016.852 138.095, 1020.154 137, 1029.047 137 L 1037 137 1037 127.500 C 1037 120.574, 1036.661 117.996, 1035.750 117.986 C 1035.063 117.979, 1033.600 117.806, 1032.500 117.602 C 1031.400 117.398, 1029.375 117.418, 1028 117.646 M 1076 119.350 C 1076 120.580, 1079.103 129.097, 1097.167 177.444 L 1103.124 193.387 1101.463 197.735 C 1099.153 203.784, 1096.096 205.527, 1088.042 205.385 L 1081.500 205.269 1082 213.379 C 1082.497 221.434, 1082.520 221.493, 1085.500 222.126 C 1099.934 225.193, 1111.421 219.777, 1118.171 206.722 C 1119.371 204.400, 1127.417 183.677, 1136.050 160.670 C 1146.617 132.511, 1151.355 118.690, 1150.548 118.380 C 1149.889 118.127, 1145.109 118.051, 1139.925 118.210 L 1130.500 118.500 1122.466 142.200 C 1118.048 155.236, 1114.219 166.115, 1113.957 166.376 C 1113.696 166.638, 1109.718 155.860, 1105.117 142.426 L 1096.752 118 1086.376 118 C 1078.332 118, 1076 118.303, 1076 119.350 M 939.684 133.404 C 933.797 135.573, 930.606 139.114, 928.559 145.750 L 927.865 148 944.881 148 L 961.896 148 960.795 144.750 C 957.407 134.748, 948.714 130.076, 939.684 133.404 M 593.421 134.896 C 588.210 137.263, 585.372 140.912, 583.360 147.833 C 576.767 170.512, 598.088 188.626, 612.828 172.868 C 621.170 163.951, 620.885 146.973, 612.252 138.588 C 606.455 132.957, 600.334 131.757, 593.421 134.896 M 851.408 134.520 C 847.056 136.430, 842.289 142.215, 840.931 147.237 C 839.325 153.173, 840.247 163.611, 842.822 168.655 C 846.573 176.001, 853.125 179.658, 860.541 178.546 C 870.259 177.089, 877.862 165.128, 876.466 153.496 C 875.327 144.009, 871.557 138.147, 864.500 134.890 C 859.835 132.737, 855.735 132.621, 851.408 134.520 M 420.500 135.412 C 409.513 140.295, 405.563 160.517, 413.316 172.188 C 420.716 183.328, 438.090 181.706, 444.090 169.316 C 446.804 163.711, 447.305 152.946, 445.141 146.725 C 441.487 136.219, 430.270 131.069, 420.500 135.412 M 506.316 135.943 C 499.082 139.228, 494.403 149.759, 495.575 160.115 C 496.327 166.754, 500.861 175.113, 505 177.488 C 510.036 180.379, 519.393 180.156, 524.459 177.025 C 533.847 171.223, 536.197 151.401, 528.763 140.727 C 524.374 134.427, 514.358 132.292, 506.316 135.943 M 22.270 196.483 C 18.499 198.122, 15.009 203.309, 15.004 207.282 C 14.998 211.807, 17.647 216.814, 21.190 218.974 C 24.465 220.971, 25.869 220.993, 155 220.993 C 282.671 220.993, 285.569 220.950, 288.701 219.040 C 297.437 213.714, 296.729 200.292, 287.510 196.440 C 282.412 194.310, 27.173 194.351, 22.270 196.483" stroke="none" fill="#fd0808" fill-rule="evenodd"/>
</svg>