<svg xmlns="http://www.w3.org/2000/svg" width="946" height="795" viewBox="0 0 946 795" version="1.1">
	<path d="M 100.500 49.920 C 88.339 50.617, 86.225 51.398, 78.806 57.935 C 66.214 69.031, 65.214 86.376, 76.451 98.814 C 78.473 101.052, 82.236 103.922, 84.814 105.192 L 89.500 107.500 149.750 107.825 L 210 108.151 210.520 110.325 C 210.806 111.521, 217.306 156.600, 224.964 210.500 C 240.764 321.701, 259.408 451.359, 264.507 485.500 C 266.397 498.150, 269.990 522.346, 272.492 539.269 C 277.596 573.783, 280.047 582.582, 288.640 597.239 C 304.484 624.264, 326.820 641.103, 353.309 645.992 C 358.925 647.029, 360.007 647.534, 359.481 648.874 C 354.149 662.476, 353.574 665.420, 353.595 679 C 353.612 690.821, 353.936 693.463, 356.199 700.244 C 359.450 709.986, 363.610 716.498, 370.875 723.222 C 385.923 737.150, 408.051 742.349, 429.247 736.937 C 438.959 734.457, 443.644 732.175, 451.230 726.228 C 470.207 711.352, 477.046 688.213, 470.479 661.103 C 469.093 655.385, 468.231 650.435, 468.562 650.103 C 470.348 648.315, 623.882 649.073, 626.813 650.885 C 627.556 651.344, 627.297 653.805, 625.976 658.839 C 619.820 682.287, 624.435 705.459, 638.282 720.624 C 648.628 731.954, 662.054 737.846, 679.592 738.750 C 711.150 740.379, 736.149 721.656, 742.681 691.500 C 744.623 682.536, 743.899 667.194, 741.065 657.263 C 739.929 653.282, 739 649.439, 739 648.723 C 739 647.813, 742.806 646.902, 751.636 645.697 C 765.776 643.768, 770.874 641.916, 776.814 636.549 C 788.145 626.312, 788.558 607.486, 777.699 596.165 C 770.846 589.020, 767.377 587.812, 751.180 586.924 C 743.106 586.481, 692.175 586.047, 638 585.959 C 583.825 585.871, 503.275 585.467, 459 585.063 C 379.111 584.333, 378.447 584.310, 371.500 582.065 C 361.250 578.752, 351.330 573.235, 345.947 567.852 C 340.734 562.639, 335.337 553.937, 334.395 549.225 L 333.788 546.190 341.144 545.610 C 345.190 545.291, 441.200 544.829, 554.500 544.582 C 761.120 544.133, 777.487 543.848, 787.242 540.536 C 802.487 535.360, 816.161 523.603, 822.855 509.914 C 828.715 497.933, 830.472 487.752, 854.078 329 C 861.812 276.991, 863.302 264.946, 863.734 250.953 C 864.187 236.299, 864.001 233.442, 862.111 225.967 C 855.234 198.772, 833 175.532, 809.453 170.927 C 805.275 170.110, 774.096 169.628, 704.866 169.309 L 606.232 168.855 605.804 156.177 C 605.425 144.962, 605.064 142.851, 602.674 137.874 C 599.503 131.271, 591.826 123.695, 585.447 120.874 C 570.576 114.295, 553.888 117.692, 543.250 129.462 C 536.015 137.468, 534.613 141.497, 534.015 156 L 533.500 168.500 407.220 168.754 C 306.712 168.956, 280.848 168.752, 280.488 167.754 C 280.239 167.064, 277.773 151.650, 275.007 133.500 C 269.205 95.418, 267.390 87.321, 262.343 77 C 257.828 67.767, 247.197 56.756, 239 52.823 L 233.500 50.184 172.500 49.737 C 138.950 49.491, 106.550 49.573, 100.500 49.920 M 554.500 207.641 C 545.394 208.216, 524.535 211.932, 515.034 214.674 C 459.025 230.834, 409.565 275.393, 386.482 330.487 C 381.098 343.339, 375.850 358.589, 373.028 369.582 C 370.155 380.776, 366 404.502, 366 409.718 L 366 414.039 387.729 413.770 L 409.458 413.500 412.679 399.500 C 423.817 351.078, 443.513 313.600, 472.105 286.421 C 490.051 269.361, 514.463 255.977, 536 251.390 C 548.176 248.797, 570.470 248.800, 578 251.396 C 592.468 256.385, 599.074 265.452, 599.244 280.557 C 599.348 289.804, 596.569 295.905, 587.416 306.524 C 576.718 318.936, 573.346 323.976, 567.565 336.189 C 557.350 357.775, 553.234 374.757, 552.282 399.250 L 551.709 414 662.504 414 L 773.299 414 772.678 405.250 C 770.337 372.277, 754.308 326.260, 735.145 297.500 C 706.657 254.745, 664.472 224.374, 616.500 212.084 C 604.586 209.031, 570.819 206.612, 554.500 207.641 M 364.500 452.937 C 342.307 453.566, 340.903 453.930, 335.081 460.560 C 331.049 465.152, 329.998 467.901, 330.009 473.815 C 330.022 479.949, 334.355 487.588, 340.069 491.548 L 344.329 494.500 563.706 494.770 L 783.083 495.039 787.518 491.988 C 797.565 485.075, 800.577 472.320, 794.487 462.470 C 788.906 453.443, 790.161 453.686, 745.054 452.875 C 699.119 452.049, 394.074 452.099, 364.500 452.937" stroke="none" fill="#956704" fill-rule="evenodd"/>
</svg>